<?xml version="1.0" encoding="UTF-8"?>
<!DOCTYPE svg PUBLIC "-//W3C//DTD SVG 1.0//EN" "http://www.w3.org/TR/2001/REC-SVG-20010904/DTD/svg10.dtd">
<!-- Creator: CorelDRAW 2020 (64 Bit) -->
<svg xmlns="http://www.w3.org/2000/svg" xml:space="preserve" width="211px" height="49px" version="1.0" style="shape-rendering:geometricPrecision; text-rendering:geometricPrecision; image-rendering:optimizeQuality; fill-rule:evenodd; clip-rule:evenodd"
viewBox="0 0 4.09 0.95"
 xmlns:xlink="http://www.w3.org/1999/xlink"
 xmlns:xodm="http://www.corel.com/coreldraw/odm/2003">
 <defs>
  <style type="text/css">
   <![CDATA[
    .fil0 {fill:white}
   ]]>
  </style>
 </defs>
 <g id="Camada_x0020_1">
  <metadata id="CorelCorpID_0Corel-Layer"/>
  <g id="_2340299139264">
   <g>
    <path class="fil0" d="M0.76 0.6l0.12 0.23c0.01,0.01 0.01,0.01 0,0.02 -0.02,0.03 -0.04,0.05 -0.08,0.07 0,0 -0.01,0 -0.02,-0.01l-0.15 -0.3c0,0 -0.01,-0.01 -0.02,-0.01l-0.01 0c-0.02,0 -0.03,0.01 -0.03,0.02l0 0.3c0,0.01 0,0.01 -0.01,0.01l-0.08 0c-0.01,0 -0.02,0 -0.02,-0.01l0 -0.6c0.05,-0.04 0.08,-0.1 0.08,-0.16 0,-0.04 -0.01,-0.08 -0.03,-0.11l0.23 0c0.09,0 0.16,0.07 0.16,0.16l0 0.22c0,0.09 -0.06,0.15 -0.14,0.17zm-0.35 -0.32l0 0.46c0,0.11 -0.09,0.19 -0.2,0.19 -0.1,0 -0.19,-0.08 -0.19,-0.19l0 -0.2c0.01,0.07 0.08,0.12 0.14,0.14 0,0 -0.01,0.01 -0.03,0.01l0 0.05c0,0.04 0.04,0.08 0.08,0.08 0.05,0 0.09,-0.04 0.09,-0.08l0 -0.46c-0.05,-0.02 -0.09,-0.07 -0.09,-0.12 0,-0.08 0.06,-0.14 0.14,-0.14 0.08,0 0.14,0.06 0.14,0.14 0,0.05 -0.04,0.1 -0.08,0.12zm0.51 0.15l0 -0.22c0,-0.1 -0.08,-0.18 -0.18,-0.18l-0.3 0c-0.03,-0.02 -0.06,-0.03 -0.09,-0.03 -0.03,0 -0.06,0.01 -0.09,0.03l0 0c-0.1,0 -0.19,0.08 -0.19,0.18l0 0.35c0,0 0.03,0.06 0.1,0.1 -0.06,-0.01 -0.12,-0.07 -0.13,-0.12 -0.01,-0.01 -0.01,-0.01 -0.02,-0.01 -0.01,0 -0.02,0 -0.02,0.01l0 0.2c0,0.12 0.1,0.21 0.21,0.21l0.53 0c0.07,0 0.13,-0.04 0.16,-0.09 0,-0.01 0,-0.02 0,-0.04l-0.11 -0.21c0.08,-0.02 0.13,-0.09 0.13,-0.18zm-0.18 -0.27l-0.08 0c0,0.08 -0.04,0.15 -0.09,0.21l0 0.12 0.17 0c0.03,0 0.05,-0.03 0.05,-0.06l0 -0.22c0,-0.03 -0.02,-0.05 -0.05,-0.05zm-0.39 -0.06c-0.03,0 -0.05,0.03 -0.05,0.06 0,0.03 0.02,0.05 0.05,0.05 0.03,0 0.06,-0.02 0.06,-0.05 0,-0.03 -0.03,-0.06 -0.06,-0.06z"/>
   </g>
   <path class="fil0" d="M1.45 0.59l-0.36 0 0 -0.04c0,-0.02 0.02,-0.04 0.04,-0.04l0.32 0c0.02,0 0.04,0.02 0.04,0.04 0,0.02 -0.02,0.04 -0.04,0.04zm0 -0.16l-0.32 0c-0.07,0 -0.12,0.05 -0.12,0.12l0 0.24c0,0.02 0.02,0.04 0.04,0.04 0.02,0 0.04,-0.02 0.04,-0.04l0 -0.12 0.36 0c0.06,0 0.11,-0.06 0.11,-0.12 0,-0.07 -0.05,-0.12 -0.11,-0.12zm0.39 0.08l0.24 0c0.02,0 0.04,0.02 0.04,0.04 0,0.02 -0.02,0.04 -0.04,0.04l-0.35 0c0.02,-0.05 0.06,-0.08 0.11,-0.08zm0.32 0.24l-0.32 0c-0.05,0 -0.09,-0.04 -0.11,-0.08l0.35 0c0.06,0 0.12,-0.06 0.12,-0.12 0,-0.07 -0.06,-0.12 -0.12,-0.12l-0.24 0c-0.11,0 -0.2,0.09 -0.2,0.2 0,0.11 0.09,0.2 0.2,0.2l0.32 0c0.02,0 0.04,-0.02 0.04,-0.04 0,-0.03 -0.02,-0.04 -0.04,-0.04zm0.23 -0.32c-0.06,0 -0.12,0.05 -0.12,0.12 0,0.06 0.06,0.12 0.12,0.12l0.32 0c0.02,0 0.04,0.02 0.04,0.04 0,0.02 -0.02,0.04 -0.04,0.04l-0.4 0c-0.02,0 -0.04,0.01 -0.04,0.04 0,0.02 0.02,0.04 0.04,0.04l0.4 0c0.06,0 0.12,-0.06 0.12,-0.12 0,-0.07 -0.06,-0.12 -0.12,-0.12l-0.32 0c-0.02,0 -0.04,-0.02 -0.04,-0.04 0,-0.02 0.02,-0.04 0.04,-0.04l0.4 0c0.02,0 0.04,-0.02 0.04,-0.04 0,-0.02 -0.02,-0.04 -0.04,-0.04l-0.4 0zm0.71 0.4c-0.11,0 -0.19,-0.09 -0.19,-0.2 0,-0.11 0.08,-0.2 0.19,-0.2l0.32 0c0.02,0 0.04,0.02 0.04,0.04 0,0.02 -0.02,0.04 -0.04,0.04l-0.32 0c-0.06,0 -0.11,0.05 -0.11,0.12 0,0.06 0.05,0.12 0.11,0.12l0.32 0c0.02,0 0.04,0.01 0.04,0.04 0,0.02 -0.02,0.04 -0.04,0.04l-0.32 0zm0.79 -0.08l-0.23 0c-0.03,0 -0.04,-0.02 -0.04,-0.04 0,-0.02 0.01,-0.04 0.04,-0.04l0.34 0c-0.01,0.04 -0.06,0.08 -0.11,0.08zm0 -0.32l-0.31 0c-0.02,0 -0.04,0.02 -0.04,0.04 0,0.02 0.02,0.04 0.04,0.04l0.31 0c0.05,0 0.1,0.03 0.11,0.08l-0.34 0c-0.07,0 -0.12,0.05 -0.12,0.12 0,0.06 0.05,0.12 0.12,0.12l0.23 0c0.05,0 0.09,-0.02 0.12,-0.04l0 0c0,0.02 0.02,0.04 0.04,0.04 0.02,0 0.04,-0.02 0.04,-0.04l0 -0.16c0,-0.11 -0.09,-0.2 -0.2,-0.2z"/>
  </g>
 </g>
</svg>
